<svg xmlns="http://www.w3.org/2000/svg" width="512" height="512" viewBox="0 0 512 512" version="1.1">
	<path d="M 0 256.002 L 0 512.004 256.250 511.752 L 512.500 511.500 512.752 255.750 L 513.004 0 256.502 0 L 0 0 0 256.002 M 0.492 256.500 C 0.492 397.300, 0.608 454.751, 0.750 384.170 C 0.892 313.588, 0.892 198.388, 0.750 128.170 C 0.608 57.951, 0.492 115.700, 0.492 256.500 M 229.325 19.095 C 210.120 21.333, 183.793 28.890, 162.364 38.315 C 136.461 49.709, 110.762 67.490, 89.228 88.919 C 51.531 126.432, 27.753 175.738, 22.055 228.211 C 19.466 252.048, 21.239 282.861, 26.557 306.437 C 40.260 367.190, 79.470 421.515, 134.647 456.194 C 162.214 473.521, 198.842 486.140, 232.921 490.054 C 246.447 491.607, 278.414 490.757, 290.446 488.524 C 345.608 478.287, 389.696 454.384, 427.027 414.478 C 455.467 384.075, 476.578 343.123, 485.419 301.207 C 492.016 269.929, 490.929 232.537, 482.445 198.846 C 473.874 164.811, 457.693 132.412, 436.825 107.500 C 428.094 97.078, 409.622 78.921, 399.500 70.812 C 364.899 43.093, 319.118 23.658, 277.500 19.020 C 266.990 17.848, 239.660 17.891, 229.325 19.095 M 227.231 58.090 C 209.527 60.786, 180.533 70.694, 167.651 78.451 C 164.442 80.384, 160.149 81.988, 157.106 82.392 C 133.486 85.525, 107.041 99.855, 85.951 120.949 C 60.390 146.514, 42.646 182.884, 35.544 224.270 C 31.355 248.680, 31.536 271.615, 36.071 291 C 39.711 306.558, 41.956 305.611, 41.993 288.500 C 42.087 245.725, 48.504 216.367, 64.669 184.758 C 79.667 155.431, 98.938 133.332, 124.500 116.148 C 158.564 93.248, 214.066 75, 249.655 75 C 282.033 75, 315.435 86.133, 341.193 105.511 C 373.739 129.994, 391.946 163.536, 393.707 202.250 C 394.038 209.511, 393.903 214.990, 393.394 214.977 C 392.902 214.965, 390.796 210.981, 388.713 206.125 C 375.963 176.396, 355.667 151.907, 329.017 134.093 C 308.908 120.651, 288.359 111.633, 266.881 106.824 C 257.627 104.752, 253.948 104.500, 233 104.500 C 212.194 104.500, 208.256 104.766, 198.652 106.822 C 165.278 113.966, 133.975 129.965, 111.039 151.602 C 84.675 176.473, 62.910 215.011, 54.816 251.156 C 51.672 265.197, 51.428 297.920, 54.373 310.500 C 58.611 328.602, 66.331 346.512, 76.248 361.250 C 81.778 369.468, 84.552 371.216, 83.787 366 C 83.545 364.350, 83.642 363, 84.004 363 C 84.365 363, 86.193 365.137, 88.065 367.750 C 95.155 377.643, 105.873 388.727, 119.942 400.715 C 127.949 407.537, 134.673 413.611, 134.884 414.211 C 135.387 415.642, 133.169 414.952, 124.268 410.913 C 120.290 409.108, 116.721 407.946, 116.336 408.330 C 115.341 409.326, 121.463 415.451, 128.500 420.499 C 140.595 429.176, 164.130 439.049, 182.256 443.050 C 188.549 444.440, 190.782 443.643, 187.250 441.269 C 185.303 439.960, 184.079 437, 185.485 437 C 185.752 437, 188.156 438.345, 190.827 439.989 C 197.980 444.390, 213.363 451.421, 222.500 454.465 C 237.721 459.537, 247.394 461.145, 266 461.697 C 281.001 462.142, 285.335 461.905, 296.348 460.036 C 316.796 456.566, 347.196 446.136, 367.773 435.529 C 393.659 422.186, 419.075 399.343, 434.564 375.500 C 452.406 348.035, 464.771 309.443, 468.046 271 C 471.679 228.350, 460.120 178.891, 437.559 140.556 C 434.586 135.505, 431.368 130.726, 430.408 129.936 C 428.802 128.614, 428.710 128.739, 429.261 131.500 C 429.591 133.150, 430.158 135.400, 430.522 136.500 C 431.299 138.849, 429.266 136.748, 418 123.556 C 398.880 101.168, 363.472 75.064, 341.383 67.071 C 328.204 62.303, 326.678 63.409, 337.500 69.888 C 390.269 101.478, 418.666 137.488, 433.520 191.649 C 438.832 211.022, 440.418 223.650, 440.408 246.500 C 440.400 264.329, 440.110 267.857, 437.740 279 C 420.729 358.984, 361.685 414.945, 291.387 417.711 C 263.148 418.822, 237.828 411.456, 217.388 396.182 C 202.836 385.308, 203.327 384.414, 219.393 392.529 C 235.741 400.788, 248.449 405.234, 260.895 407.049 C 271.192 408.550, 292.438 407.759, 303 405.482 C 346.419 396.119, 384.122 366.481, 405.383 325 C 429.394 278.155, 433.412 229.152, 417.350 179.060 C 412.509 163.964, 400.801 140.806, 392.294 129.500 C 366.869 95.712, 327.178 70.059, 285.423 60.428 C 274.891 57.999, 271.166 57.646, 253.500 57.407 C 242.500 57.258, 230.679 57.565, 227.231 58.090 M 234.635 122.031 C 216.941 124.825, 196.790 132.689, 181.668 142.702 C 172.588 148.714, 157.486 163.236, 150.033 173.120 C 136.994 190.416, 127.826 215.602, 124.961 242 C 118.790 298.878, 153.187 354.834, 207.555 376.360 C 231.658 385.903, 255.131 387.214, 281.610 380.497 C 326.824 369.028, 361.831 330.935, 372.588 281.500 C 374.968 270.563, 374.973 247.010, 372.598 233.500 C 365.831 195.004, 344.869 162.103, 313.944 141.438 C 293.497 127.774, 276.498 122.115, 254 121.484 C 246.575 121.275, 237.861 121.521, 234.635 122.031 M 239.241 165.508 C 207.802 172.717, 182.569 197.421, 173.878 229.500 C 170.831 240.749, 170.828 259.229, 173.871 270.500 C 180.554 295.247, 197.361 316.154, 218.608 326.149 C 229.640 331.339, 238.372 333.283, 251 333.361 C 289.744 333.600, 322.198 308.200, 332.597 269.500 C 334.038 264.139, 334.473 259.105, 334.454 248 C 334.434 235.402, 334.079 232.227, 331.752 223.797 C 323.834 195.122, 305.995 176.433, 278 167.486 C 267.470 164.121, 249.329 163.195, 239.241 165.508 M 285.637 190.465 C 274.037 194.600, 269.183 207.811, 275.379 218.384 C 280.490 227.105, 289.063 231.216, 297.678 229.076 C 308.362 226.423, 314.386 219.005, 314.361 208.530 C 314.344 201.658, 312.565 197.495, 308.005 193.658 C 302.571 189.086, 293.242 187.754, 285.637 190.465 M 120.006 195.697 C 116.275 200.402, 106.266 221.931, 102.653 233.022 C 97.041 250.249, 95.495 260.885, 95.534 282 C 95.585 308.900, 99.310 326.062, 110.018 348.719 C 123.076 376.348, 148.340 402.568, 174.712 415.860 C 182.409 419.739, 196.107 425.227, 196.675 424.658 C 196.907 424.427, 194.487 422.071, 191.298 419.424 C 168.084 400.155, 157.717 383.541, 152.465 357.189 C 151.225 350.967, 150.051 345.737, 149.855 345.566 C 149.660 345.395, 148.011 344.497, 146.190 343.571 C 135.040 337.898, 121.532 318.870, 114.979 299.602 C 107.001 276.146, 105.945 246.685, 112.166 221.143 C 114.252 212.580, 118.881 200.357, 121.622 196.173 C 123.854 192.766, 122.618 192.402, 120.006 195.697 M 277.655 202.829 C 275.732 204.954, 275.453 211.053, 277.200 212.800 C 279.749 215.349, 282.571 214.148, 284.876 209.534 C 286.641 206, 286.879 204.643, 286.018 203.034 C 284.634 200.447, 279.915 200.331, 277.655 202.829" stroke="none" fill="black" fill-rule="evenodd"/>
</svg>